{
	"patcher" : 	{
		"fileversion" : 1,
		"appversion" : 		{
			"major" : 8,
			"minor" : 6,
			"revision" : 3,
			"architecture" : "x64",
			"modernui" : 1
		}
,
		"classnamespace" : "rnbo",
		"rect" : [ 301.0, 331.0, 797.0, 741.0 ],
		"bglocked" : 0,
		"openinpresentation" : 0,
		"default_fontsize" : 12.0,
		"default_fontface" : 0,
		"default_fontname" : "Lato",
		"gridonopen" : 1,
		"gridsize" : [ 15.0, 15.0 ],
		"gridsnaponopen" : 1,
		"objectsnaponopen" : 1,
		"statusbarvisible" : 2,
		"toolbarvisible" : 1,
		"lefttoolbarpinned" : 0,
		"toptoolbarpinned" : 0,
		"righttoolbarpinned" : 0,
		"bottomtoolbarpinned" : 0,
		"toolbars_unpinned_last_save" : 0,
		"tallnewobj" : 0,
		"boxanimatetime" : 200,
		"enablehscroll" : 1,
		"enablevscroll" : 1,
		"devicewidth" : 0.0,
		"description" : "",
		"digest" : "",
		"tags" : "",
		"style" : "",
		"subpatcher_template" : "",
		"assistshowspatchername" : 0,
		"title" : "stretta.funbuff",
		"boxes" : [ 			{
				"box" : 				{
					"id" : "obj-52",
					"maxclass" : "comment",
					"numinlets" : 1,
					"numoutlets" : 0,
					"patching_rect" : [ 790.400013029575348, 405.60000604391098, 117.0, 21.0 ],
					"text" : "recall y list at index x"
				}

			}
, 			{
				"box" : 				{
					"id" : "obj-50",
					"maxclass" : "newobj",
					"numinlets" : 1,
					"numoutlets" : 0,
					"patching_rect" : [ 874.400013029575348, 526.400007843971252, 33.0, 23.0 ],
					"rnbo_classname" : "print",
					"rnbo_extra_attributes" : 					{
						"prefix" : ""
					}
,
					"rnbo_serial" : 1,
					"rnbo_uniqueid" : "print_obj-50",
					"text" : "print"
				}

			}
, 			{
				"box" : 				{
					"id" : "obj-49",
					"linecount" : 4,
					"maxclass" : "message",
					"numinlets" : 2,
					"numoutlets" : 1,
					"outlettype" : [ "" ],
					"patching_rect" : [ 1168.000017404556274, 536.0000079870224, 50.0, 66.0 ],
					"rnbo_classname" : "message",
					"rnbo_extra_attributes" : 					{
						"text" : ""
					}
,
					"rnbo_serial" : 4,
					"rnbo_uniqueid" : "message_obj-49",
					"text" : "0 0 0 0 0 0 0 0 0 0 0 0 0 0 0 0"
				}

			}
, 			{
				"box" : 				{
					"bubble" : 1,
					"bubbleusescolors" : 1,
					"fontsize" : 12.0,
					"id" : "obj-37",
					"linecount" : 2,
					"maxclass" : "comment",
					"numinlets" : 1,
					"numoutlets" : 0,
					"patching_rect" : [ 840.800012528896332, 189.600002825260162, 125.0, 39.0 ],
					"text" : "Output all stored lists and indexes"
				}

			}
, 			{
				"box" : 				{
					"id" : "obj-46",
					"maxclass" : "button",
					"numinlets" : 1,
					"numoutlets" : 1,
					"outlettype" : [ "bang" ],
					"parameter_enable" : 0,
					"patching_rect" : [ 814.400012135505676, 196.800002932548523, 24.0, 24.0 ],
					"rnbo_classname" : "button",
					"rnbo_serial" : 5,
					"rnbo_uniqueid" : "button_obj-46"
				}

			}
, 			{
				"box" : 				{
					"fontsize" : 12.0,
					"id" : "obj-47",
					"maxclass" : "newobj",
					"numinlets" : 1,
					"numoutlets" : 1,
					"outlettype" : [ "" ],
					"patching_rect" : [ 814.400012135505676, 254.400003790855408, 57.0, 23.0 ],
					"rnbo_classname" : "set",
					"rnbo_serial" : 1,
					"rnbo_uniqueid" : "set_obj-47",
					"rnboinfo" : 					{
						"needsInstanceInfo" : 1,
						"argnames" : 						{
							"name" : 							{
								"attrOrProp" : 2,
								"digest" : "attribute/param to control",
								"defaultarg" : 1,
								"isalias" : 0,
								"aliases" : [  ],
								"settable" : 1,
								"attachable" : 0,
								"isparam" : 0,
								"deprecated" : 0,
								"type" : "symbol",
								"mandatory" : 1
							}

						}
,
						"inputs" : [ 							{
								"name" : "input",
								"type" : [ "bang", "number", "list", "signal" ],
								"digest" : "attribute or parameter value (bang, number, list)",
								"hot" : 1,
								"docked" : 0
							}
 ],
						"outputs" : [ 							{
								"name" : "output",
								"type" : [ "bang", "number", "list", "signal" ],
								"digest" : "connect to first inlet of gen or subpatcher",
								"docked" : 0
							}
 ],
						"helpname" : "set",
						"aliasOf" : "set",
						"classname" : "set",
						"operator" : 0,
						"versionId" : 2121358407,
						"changesPatcherIO" : 0
					}
,
					"text" : "set dump"
				}

			}
, 			{
				"box" : 				{
					"id" : "obj-45",
					"linecount" : 4,
					"maxclass" : "message",
					"numinlets" : 2,
					"numoutlets" : 1,
					"outlettype" : [ "" ],
					"patching_rect" : [ 978.400014579296112, 527.200007855892181, 50.0, 66.0 ],
					"rnbo_classname" : "message",
					"rnbo_extra_attributes" : 					{
						"text" : ""
					}
,
					"rnbo_serial" : 3,
					"rnbo_uniqueid" : "message_obj-45",
					"text" : "0 0 0 0 0 0 0 0 0 0 0 0 0 0 0 0"
				}

			}
, 			{
				"box" : 				{
					"format" : 0,
					"id" : "obj-42",
					"maxclass" : "number",
					"numinlets" : 1,
					"numoutlets" : 1,
					"outlettype" : [ "" ],
					"parameter_enable" : 0,
					"patching_rect" : [ 915.800012528896332, 392.000005841255188, 50.0, 23.0 ],
					"rnbo_classname" : "number",
					"rnbo_extra_attributes" : 					{
						"maximum" : "<none>",
						"minimum" : "<none>",
						"order" : "",
						"preset" : 0,
						"initialFormat" : "integer"
					}
,
					"rnbo_serial" : 6,
					"rnbo_uniqueid" : "number_obj-42"
				}

			}
, 			{
				"box" : 				{
					"id" : "obj-38",
					"maxclass" : "button",
					"numinlets" : 1,
					"numoutlets" : 1,
					"outlettype" : [ "bang" ],
					"parameter_enable" : 0,
					"patching_rect" : [ 1056.000015735626221, 98.400001466274261, 24.0, 24.0 ],
					"rnbo_classname" : "button",
					"rnbo_serial" : 4,
					"rnbo_uniqueid" : "button_obj-38"
				}

			}
, 			{
				"box" : 				{
					"id" : "obj-36",
					"maxclass" : "newobj",
					"numinlets" : 1,
					"numoutlets" : 2,
					"outlettype" : [ "", "" ],
					"patching_rect" : [ 1056.000015735626221, 138.400002062320709, 32.0, 23.0 ],
					"rnbo_classname" : "t",
					"rnbo_serial" : 5,
					"rnbo_uniqueid" : "t_obj-36",
					"rnboinfo" : 					{
						"needsInstanceInfo" : 1,
						"argnames" : 						{
							"out1" : 							{
								"attrOrProp" : 1,
								"digest" : "Output order 2 (bang).",
								"defaultarg" : 1,
								"isalias" : 0,
								"aliases" : [  ],
								"attachable" : 0,
								"isparam" : 0,
								"deprecated" : 0,
								"outlet" : 1,
								"type" : "bang"
							}
,
							"out2" : 							{
								"attrOrProp" : 1,
								"digest" : "Output order 1 (bang).",
								"defaultarg" : 2,
								"isalias" : 0,
								"aliases" : [  ],
								"attachable" : 0,
								"isparam" : 0,
								"deprecated" : 0,
								"outlet" : 1,
								"type" : "bang"
							}
,
							"triggers" : 							{
								"attrOrProp" : 2,
								"digest" : "The number of arguments determines the number of outlets. \t\t\t\t\t\tEach outlet sends out either a whole number, float, bang or list, \t\t\t\t\t\tas identified by symbol arguments (i, f, b, l). \t\t\t\t\t\tIf there are no arguments, there are two outlets, both of which send a float.",
								"defaultarg" : 1,
								"isalias" : 0,
								"aliases" : [  ],
								"settable" : 1,
								"attachable" : 0,
								"isparam" : 0,
								"deprecated" : 0,
								"type" : "list"
							}

						}
,
						"inputs" : [ 							{
								"name" : "input",
								"type" : [ "bang", "number", "list" ],
								"digest" : "input to distribute",
								"hot" : 1,
								"docked" : 0
							}
 ],
						"outputs" : [ 							{
								"name" : "out1",
								"type" : "bang",
								"digest" : "Output order 2 (bang).",
								"defaultarg" : 1,
								"docked" : 0
							}
, 							{
								"name" : "out2",
								"type" : "bang",
								"digest" : "Output order 1 (bang).",
								"defaultarg" : 2,
								"docked" : 0
							}
 ],
						"helpname" : "trigger",
						"aliasOf" : "trigger",
						"classname" : "t",
						"operator" : 0,
						"versionId" : -1133428571,
						"changesPatcherIO" : 0
					}
,
					"text" : "t b b"
				}

			}
, 			{
				"box" : 				{
					"id" : "obj-35",
					"maxclass" : "newobj",
					"numinlets" : 2,
					"numoutlets" : 1,
					"outlettype" : [ "" ],
					"patching_rect" : [ 1132.8000168800354, 388.800005793571472, 43.0, 23.0 ],
					"rnbo_classname" : "list.reg",
					"rnbo_serial" : 12,
					"rnbo_uniqueid" : "list.reg_obj-35",
					"text" : "list.reg"
				}

			}
, 			{
				"box" : 				{
					"id" : "obj-34",
					"maxclass" : "newobj",
					"numinlets" : 2,
					"numoutlets" : 1,
					"outlettype" : [ "" ],
					"patching_rect" : [ 1156.800017237663269, 344.000005125999451, 57.0, 23.0 ],
					"rnbo_classname" : "list.group",
					"rnbo_serial" : 1,
					"rnbo_uniqueid" : "list.group_obj-34",
					"text" : "list.group"
				}

			}
, 			{
				"box" : 				{
					"id" : "obj-33",
					"maxclass" : "message",
					"numinlets" : 2,
					"numoutlets" : 1,
					"outlettype" : [ "" ],
					"patching_rect" : [ 1056.000015735626221, 301.600004494190216, 29.5, 23.0 ],
					"rnbo_classname" : "message",
					"rnbo_extra_attributes" : 					{
						"text" : ""
					}
,
					"rnbo_serial" : 2,
					"rnbo_uniqueid" : "message_obj-33",
					"text" : "0"
				}

			}
, 			{
				"box" : 				{
					"id" : "obj-30",
					"maxclass" : "button",
					"numinlets" : 1,
					"numoutlets" : 1,
					"outlettype" : [ "bang" ],
					"parameter_enable" : 0,
					"patching_rect" : [ 1135.200016915798187, 189.600002825260162, 24.0, 24.0 ],
					"rnbo_classname" : "button",
					"rnbo_serial" : 3,
					"rnbo_uniqueid" : "button_obj-30"
				}

			}
, 			{
				"box" : 				{
					"id" : "obj-31",
					"maxclass" : "newobj",
					"numinlets" : 2,
					"numoutlets" : 3,
					"outlettype" : [ "", "", "" ],
					"patching_rect" : [ 1132.8000168800354, 246.400003671646118, 119.0, 23.0 ],
					"rnbo_classname" : "uzi",
					"rnbo_serial" : 3,
					"rnbo_uniqueid" : "uzi_obj-31",
					"text" : "uzi 32 0"
				}

			}
, 			{
				"box" : 				{
					"format" : 0,
					"id" : "obj-29",
					"maxclass" : "number",
					"numinlets" : 1,
					"numoutlets" : 1,
					"outlettype" : [ "" ],
					"parameter_enable" : 0,
					"patching_rect" : [ 1492.80002224445343, 210.20000171661377, 50.0, 23.0 ],
					"rnbo_classname" : "number",
					"rnbo_extra_attributes" : 					{
						"maximum" : "<none>",
						"minimum" : "<none>",
						"order" : "",
						"preset" : 0,
						"initialFormat" : "integer"
					}
,
					"rnbo_serial" : 4,
					"rnbo_uniqueid" : "number_obj-29"
				}

			}
, 			{
				"box" : 				{
					"format" : 0,
					"id" : "obj-25",
					"maxclass" : "number",
					"numinlets" : 1,
					"numoutlets" : 1,
					"outlettype" : [ "" ],
					"parameter_enable" : 0,
					"patching_rect" : [ 1424.00002121925354, 205.400001645088196, 50.0, 23.0 ],
					"rnbo_classname" : "number",
					"rnbo_extra_attributes" : 					{
						"maximum" : "<none>",
						"minimum" : "<none>",
						"order" : "",
						"preset" : 0,
						"initialFormat" : "integer"
					}
,
					"rnbo_serial" : 2,
					"rnbo_uniqueid" : "number_obj-25"
				}

			}
, 			{
				"box" : 				{
					"id" : "obj-23",
					"maxclass" : "newobj",
					"numinlets" : 1,
					"numoutlets" : 2,
					"outlettype" : [ "", "" ],
					"patching_rect" : [ 1431.200021326541901, 155.000000894069672, 46.0, 23.0 ],
					"rnbo_classname" : "unpack",
					"rnbo_extra_attributes" : 					{
						"list" : "",
						"length" : 0.0
					}
,
					"rnbo_serial" : 1,
					"rnbo_uniqueid" : "unpack_obj-23",
					"rnboinfo" : 					{
						"needsInstanceInfo" : 1,
						"argnames" : 						{
							"input" : 							{
								"attrOrProp" : 1,
								"digest" : "input list",
								"isalias" : 0,
								"aliases" : [  ],
								"attachable" : 0,
								"isparam" : 0,
								"deprecated" : 0,
								"inlet" : 1,
								"type" : "list"
							}
,
							"out1" : 							{
								"attrOrProp" : 1,
								"digest" : "list element 1",
								"defaultarg" : 1,
								"isalias" : 0,
								"aliases" : [  ],
								"settable" : 0,
								"attachable" : 0,
								"isparam" : 0,
								"deprecated" : 0,
								"outlet" : 1,
								"type" : "number",
								"defaultValue" : "0"
							}
,
							"out2" : 							{
								"attrOrProp" : 1,
								"digest" : "list element 2",
								"defaultarg" : 2,
								"isalias" : 0,
								"aliases" : [  ],
								"settable" : 0,
								"attachable" : 0,
								"isparam" : 0,
								"deprecated" : 0,
								"outlet" : 1,
								"type" : "number",
								"defaultValue" : "0"
							}
,
							"length" : 							{
								"attrOrProp" : 2,
								"digest" : "how many things to unpack",
								"isalias" : 0,
								"aliases" : [  ],
								"settable" : 1,
								"attachable" : 0,
								"isparam" : 0,
								"deprecated" : 0,
								"type" : "number"
							}
,
							"list" : 							{
								"attrOrProp" : 2,
								"digest" : "the list to initialize the unpack object with",
								"defaultarg" : 1,
								"isalias" : 0,
								"aliases" : [  ],
								"settable" : 1,
								"attachable" : 0,
								"isparam" : 0,
								"deprecated" : 0,
								"type" : "list"
							}

						}
,
						"inputs" : [ 							{
								"name" : "input",
								"type" : [ "bang", "list" ],
								"digest" : "input list",
								"hot" : 1,
								"docked" : 0
							}
 ],
						"outputs" : [ 							{
								"name" : "out1",
								"type" : "number",
								"digest" : "list element 1",
								"defaultarg" : 1,
								"docked" : 0
							}
, 							{
								"name" : "out2",
								"type" : "number",
								"digest" : "list element 2",
								"defaultarg" : 2,
								"docked" : 0
							}
 ],
						"helpname" : "unpack",
						"aliasOf" : "unpack",
						"classname" : "unpack",
						"operator" : 0,
						"versionId" : 1723330322,
						"changesPatcherIO" : 0
					}
,
					"text" : "unpack"
				}

			}
, 			{
				"box" : 				{
					"id" : "obj-22",
					"maxclass" : "message",
					"numinlets" : 2,
					"numoutlets" : 1,
					"outlettype" : [ "" ],
					"patching_rect" : [ 1431.200021326541901, 95.0, 39.0, 23.0 ],
					"rnbo_classname" : "message",
					"rnbo_extra_attributes" : 					{
						"text" : ""
					}
,
					"rnbo_serial" : 1,
					"rnbo_uniqueid" : "message_obj-22",
					"text" : "32 16"
				}

			}
, 			{
				"box" : 				{
					"id" : "obj-19",
					"maxclass" : "button",
					"numinlets" : 1,
					"numoutlets" : 1,
					"outlettype" : [ "bang" ],
					"parameter_enable" : 0,
					"patching_rect" : [ 1056.000015735626221, 189.600002825260162, 24.0, 24.0 ],
					"rnbo_classname" : "button",
					"rnbo_serial" : 2,
					"rnbo_uniqueid" : "button_obj-19"
				}

			}
, 			{
				"box" : 				{
					"id" : "obj-17",
					"maxclass" : "newobj",
					"numinlets" : 2,
					"numoutlets" : 3,
					"outlettype" : [ "", "", "" ],
					"patching_rect" : [ 1056.000015735626221, 246.400003671646118, 51.0, 23.0 ],
					"rnbo_classname" : "uzi",
					"rnbo_serial" : 1,
					"rnbo_uniqueid" : "uzi_obj-17",
					"text" : "uzi 16 0"
				}

			}
, 			{
				"box" : 				{
					"id" : "obj-16",
					"maxclass" : "newobj",
					"numinlets" : 3,
					"numoutlets" : 4,
					"outlettype" : [ "", "", "", "" ],
					"patching_rect" : [ 1032.800015389919281, 440.800006568431854, 219.0, 23.0 ],
					"rnbo_classname" : "list.store",
					"rnbo_serial" : 4,
					"rnbo_uniqueid" : "list.store_obj-16",
					"text" : "list.store @maxlistsize 16 @slotcount 32"
				}

			}
, 			{
				"box" : 				{
					"id" : "obj-15",
					"maxclass" : "comment",
					"numinlets" : 1,
					"numoutlets" : 0,
					"patching_rect" : [ 209.0, 390.0, 81.0, 21.0 ],
					"text" : "value at index"
				}

			}
, 			{
				"box" : 				{
					"id" : "obj-14",
					"maxclass" : "newobj",
					"numinlets" : 2,
					"numoutlets" : 1,
					"outlettype" : [ "" ],
					"patching_rect" : [ 32.0, 210.0, 43.0, 23.0 ],
					"rnbo_classname" : "list.reg",
					"rnbo_serial" : 10,
					"rnbo_uniqueid" : "list.reg_obj-14",
					"text" : "list.reg"
				}

			}
, 			{
				"box" : 				{
					"id" : "obj-13",
					"maxclass" : "newobj",
					"numinlets" : 1,
					"numoutlets" : 0,
					"patching_rect" : [ 32.0, 335.0, 36.0, 23.0 ],
					"rnbo_classname" : "out",
					"rnbo_extra_attributes" : 					{
						"meta" : "",
						"comment" : ""
					}
,
					"rnbo_serial" : 1,
					"rnbo_uniqueid" : "out_obj-13",
					"rnboinfo" : 					{
						"needsInstanceInfo" : 1,
						"argnames" : 						{
							"index" : 							{
								"attrOrProp" : 2,
								"digest" : "outlet number",
								"defaultarg" : 1,
								"isalias" : 0,
								"aliases" : [  ],
								"settable" : 1,
								"attachable" : 0,
								"isparam" : 0,
								"deprecated" : 0,
								"type" : "number",
								"mandatory" : 1
							}
,
							"comment" : 							{
								"attrOrProp" : 2,
								"digest" : "mouse over comment",
								"isalias" : 0,
								"aliases" : [  ],
								"settable" : 1,
								"attachable" : 0,
								"isparam" : 0,
								"deprecated" : 0,
								"type" : "symbol"
							}
,
							"meta" : 							{
								"attrOrProp" : 2,
								"digest" : "A JSON formatted string containing metadata for use by the exported code",
								"isalias" : 0,
								"aliases" : [  ],
								"settable" : 1,
								"attachable" : 0,
								"isparam" : 0,
								"deprecated" : 0,
								"type" : "symbol",
								"defaultValue" : "",
								"label" : "Metadata",
								"displayorder" : 3
							}

						}
,
						"inputs" : [ 							{
								"name" : "in1",
								"type" : [ "bang", "number", "list" ],
								"digest" : "value sent to outlet with index 1",
								"displayName" : "",
								"hot" : 1,
								"docked" : 0
							}
 ],
						"outputs" : [  ],
						"helpname" : "out",
						"aliasOf" : "out",
						"classname" : "out",
						"operator" : 0,
						"versionId" : -735743983,
						"changesPatcherIO" : 1
					}
,
					"text" : "out 1"
				}

			}
, 			{
				"box" : 				{
					"id" : "obj-12",
					"linecount" : 2,
					"maxclass" : "comment",
					"numinlets" : 1,
					"numoutlets" : 0,
					"patching_rect" : [ 68.0, 35.0, 73.0, 35.0 ],
					"text" : "report list (bang)"
				}

			}
, 			{
				"box" : 				{
					"id" : "obj-11",
					"maxclass" : "newobj",
					"numinlets" : 0,
					"numoutlets" : 1,
					"outlettype" : [ "" ],
					"patching_rect" : [ 32.0, 35.0, 28.0, 23.0 ],
					"rnbo_classname" : "in",
					"rnbo_extra_attributes" : 					{
						"meta" : "",
						"comment" : ""
					}
,
					"rnbo_serial" : 1,
					"rnbo_uniqueid" : "in_obj-11",
					"rnboinfo" : 					{
						"needsInstanceInfo" : 1,
						"argnames" : 						{
							"index" : 							{
								"attrOrProp" : 2,
								"digest" : "inlet number",
								"defaultarg" : 1,
								"isalias" : 0,
								"aliases" : [  ],
								"settable" : 1,
								"attachable" : 0,
								"isparam" : 0,
								"deprecated" : 0,
								"type" : "number",
								"mandatory" : 1
							}
,
							"comment" : 							{
								"attrOrProp" : 2,
								"digest" : "mouse over comment",
								"isalias" : 0,
								"aliases" : [  ],
								"settable" : 1,
								"attachable" : 0,
								"isparam" : 0,
								"deprecated" : 0,
								"type" : "symbol"
							}
,
							"meta" : 							{
								"attrOrProp" : 2,
								"digest" : "A JSON formatted string containing metadata for use by the exported code",
								"isalias" : 0,
								"aliases" : [  ],
								"settable" : 1,
								"attachable" : 0,
								"isparam" : 0,
								"deprecated" : 0,
								"type" : "symbol",
								"defaultValue" : "",
								"label" : "Metadata",
								"displayorder" : 3
							}

						}
,
						"inputs" : [  ],
						"outputs" : [ 							{
								"name" : "out1",
								"type" : [ "bang", "number", "list" ],
								"digest" : "value from inlet with index 1",
								"displayName" : "",
								"docked" : 0
							}
 ],
						"helpname" : "in",
						"aliasOf" : "in",
						"classname" : "in",
						"operator" : 0,
						"versionId" : 1219109108,
						"changesPatcherIO" : 1
					}
,
					"text" : "in 1"
				}

			}
, 			{
				"box" : 				{
					"id" : "obj-10",
					"maxclass" : "comment",
					"numinlets" : 1,
					"numoutlets" : 0,
					"patching_rect" : [ 610.0, 264.0, 68.0, 21.0 ],
					"text" : "index value"
				}

			}
, 			{
				"box" : 				{
					"id" : "obj-8",
					"linecount" : 2,
					"maxclass" : "comment",
					"numinlets" : 1,
					"numoutlets" : 0,
					"patching_rect" : [ 573.0, 68.0, 126.0, 35.0 ],
					"text" : "set contents of matrix (list)"
				}

			}
, 			{
				"box" : 				{
					"id" : "obj-7",
					"maxclass" : "newobj",
					"numinlets" : 0,
					"numoutlets" : 1,
					"outlettype" : [ "" ],
					"patching_rect" : [ 535.0, 68.0, 28.0, 23.0 ],
					"rnbo_classname" : "in",
					"rnbo_extra_attributes" : 					{
						"meta" : "",
						"comment" : ""
					}
,
					"rnbo_serial" : 2,
					"rnbo_uniqueid" : "in_obj-7",
					"rnboinfo" : 					{
						"needsInstanceInfo" : 1,
						"argnames" : 						{
							"index" : 							{
								"attrOrProp" : 2,
								"digest" : "inlet number",
								"defaultarg" : 1,
								"isalias" : 0,
								"aliases" : [  ],
								"settable" : 1,
								"attachable" : 0,
								"isparam" : 0,
								"deprecated" : 0,
								"type" : "number",
								"mandatory" : 1
							}
,
							"comment" : 							{
								"attrOrProp" : 2,
								"digest" : "mouse over comment",
								"isalias" : 0,
								"aliases" : [  ],
								"settable" : 1,
								"attachable" : 0,
								"isparam" : 0,
								"deprecated" : 0,
								"type" : "symbol"
							}
,
							"meta" : 							{
								"attrOrProp" : 2,
								"digest" : "A JSON formatted string containing metadata for use by the exported code",
								"isalias" : 0,
								"aliases" : [  ],
								"settable" : 1,
								"attachable" : 0,
								"isparam" : 0,
								"deprecated" : 0,
								"type" : "symbol",
								"defaultValue" : "",
								"label" : "Metadata",
								"displayorder" : 3
							}

						}
,
						"inputs" : [  ],
						"outputs" : [ 							{
								"name" : "out1",
								"type" : [ "bang", "number", "list" ],
								"digest" : "value from inlet with index 4",
								"displayName" : "",
								"docked" : 0
							}
 ],
						"helpname" : "in",
						"aliasOf" : "in",
						"classname" : "in",
						"operator" : 0,
						"versionId" : 1219109108,
						"changesPatcherIO" : 1
					}
,
					"text" : "in 4"
				}

			}
, 			{
				"box" : 				{
					"id" : "obj-5",
					"linecount" : 2,
					"maxclass" : "comment",
					"numinlets" : 1,
					"numoutlets" : 0,
					"patching_rect" : [ 555.0, 177.0, 125.0, 35.0 ],
					"text" : "replace value at index \n<list> index value"
				}

			}
, 			{
				"box" : 				{
					"id" : "obj-4",
					"linecount" : 2,
					"maxclass" : "comment",
					"numinlets" : 1,
					"numoutlets" : 0,
					"patching_rect" : [ 247.0, 35.0, 82.400001227855682, 35.0 ],
					"text" : "retreive data at index"
				}

			}
, 			{
				"box" : 				{
					"id" : "obj-2",
					"maxclass" : "newobj",
					"numinlets" : 0,
					"numoutlets" : 1,
					"outlettype" : [ "" ],
					"patching_rect" : [ 511.0, 176.0, 28.0, 23.0 ],
					"rnbo_classname" : "in",
					"rnbo_extra_attributes" : 					{
						"meta" : "",
						"comment" : ""
					}
,
					"rnbo_serial" : 5,
					"rnbo_uniqueid" : "in_obj-2",
					"rnboinfo" : 					{
						"needsInstanceInfo" : 1,
						"argnames" : 						{
							"index" : 							{
								"attrOrProp" : 2,
								"digest" : "inlet number",
								"defaultarg" : 1,
								"isalias" : 0,
								"aliases" : [  ],
								"settable" : 1,
								"attachable" : 0,
								"isparam" : 0,
								"deprecated" : 0,
								"type" : "number",
								"mandatory" : 1
							}
,
							"comment" : 							{
								"attrOrProp" : 2,
								"digest" : "mouse over comment",
								"isalias" : 0,
								"aliases" : [  ],
								"settable" : 1,
								"attachable" : 0,
								"isparam" : 0,
								"deprecated" : 0,
								"type" : "symbol"
							}
,
							"meta" : 							{
								"attrOrProp" : 2,
								"digest" : "A JSON formatted string containing metadata for use by the exported code",
								"isalias" : 0,
								"aliases" : [  ],
								"settable" : 1,
								"attachable" : 0,
								"isparam" : 0,
								"deprecated" : 0,
								"type" : "symbol",
								"defaultValue" : "",
								"label" : "Metadata",
								"displayorder" : 3
							}

						}
,
						"inputs" : [  ],
						"outputs" : [ 							{
								"name" : "out1",
								"type" : [ "bang", "number", "list" ],
								"digest" : "value from inlet with index 3",
								"displayName" : "",
								"docked" : 0
							}
 ],
						"helpname" : "in",
						"aliasOf" : "in",
						"classname" : "in",
						"operator" : 0,
						"versionId" : 1219109108,
						"changesPatcherIO" : 1
					}
,
					"text" : "in 3"
				}

			}
, 			{
				"box" : 				{
					"id" : "obj-1",
					"maxclass" : "newobj",
					"numinlets" : 1,
					"numoutlets" : 0,
					"patching_rect" : [ 209.0, 335.0, 36.0, 23.0 ],
					"rnbo_classname" : "out",
					"rnbo_extra_attributes" : 					{
						"meta" : "",
						"comment" : ""
					}
,
					"rnbo_serial" : 2,
					"rnbo_uniqueid" : "out_obj-1",
					"rnboinfo" : 					{
						"needsInstanceInfo" : 1,
						"argnames" : 						{
							"index" : 							{
								"attrOrProp" : 2,
								"digest" : "outlet number",
								"defaultarg" : 1,
								"isalias" : 0,
								"aliases" : [  ],
								"settable" : 1,
								"attachable" : 0,
								"isparam" : 0,
								"deprecated" : 0,
								"type" : "number",
								"mandatory" : 1
							}
,
							"comment" : 							{
								"attrOrProp" : 2,
								"digest" : "mouse over comment",
								"isalias" : 0,
								"aliases" : [  ],
								"settable" : 1,
								"attachable" : 0,
								"isparam" : 0,
								"deprecated" : 0,
								"type" : "symbol"
							}
,
							"meta" : 							{
								"attrOrProp" : 2,
								"digest" : "A JSON formatted string containing metadata for use by the exported code",
								"isalias" : 0,
								"aliases" : [  ],
								"settable" : 1,
								"attachable" : 0,
								"isparam" : 0,
								"deprecated" : 0,
								"type" : "symbol",
								"defaultValue" : "",
								"label" : "Metadata",
								"displayorder" : 3
							}

						}
,
						"inputs" : [ 							{
								"name" : "in1",
								"type" : [ "bang", "number", "list" ],
								"digest" : "value sent to outlet with index 2",
								"displayName" : "",
								"hot" : 1,
								"docked" : 0
							}
 ],
						"outputs" : [  ],
						"helpname" : "out",
						"aliasOf" : "out",
						"classname" : "out",
						"operator" : 0,
						"versionId" : -735743983,
						"changesPatcherIO" : 1
					}
,
					"text" : "out 2"
				}

			}
, 			{
				"box" : 				{
					"id" : "obj-58",
					"linecount" : 5,
					"maxclass" : "comment",
					"numinlets" : 1,
					"numoutlets" : 0,
					"patching_rect" : [ 618.0, 322.0, 197.0, 78.0 ],
					"text" : "we're using mth in this replacement mode (two integer list in the right inlet. Also, using the right outlet for the replaced list. We'll send this back into the input buffer"
				}

			}
, 			{
				"box" : 				{
					"id" : "obj-57",
					"linecount" : 2,
					"maxclass" : "comment",
					"numinlets" : 1,
					"numoutlets" : 0,
					"patching_rect" : [ 39.0, 390.0, 144.000002145767212, 35.0 ],
					"text" : "pack the inverted state with the list index"
				}

			}
, 			{
				"box" : 				{
					"id" : "obj-55",
					"maxclass" : "comment",
					"numinlets" : 1,
					"numoutlets" : 0,
					"patching_rect" : [ 105.0, 275.0, 97.0, 21.0 ],
					"text" : "look up the state"
				}

			}
, 			{
				"box" : 				{
					"id" : "obj-44",
					"maxclass" : "newobj",
					"numinlets" : 1,
					"numoutlets" : 2,
					"outlettype" : [ "", "" ],
					"patching_rect" : [ 511.0, 237.0, 88.000001311302185, 23.0 ],
					"rnbo_classname" : "t",
					"rnbo_serial" : 4,
					"rnbo_uniqueid" : "t_obj-44",
					"rnboinfo" : 					{
						"needsInstanceInfo" : 1,
						"argnames" : 						{
							"out1" : 							{
								"attrOrProp" : 1,
								"digest" : "Output order 2 (bang).",
								"defaultarg" : 1,
								"isalias" : 0,
								"aliases" : [  ],
								"attachable" : 0,
								"isparam" : 0,
								"deprecated" : 0,
								"outlet" : 1,
								"type" : "bang"
							}
,
							"out2" : 							{
								"attrOrProp" : 1,
								"digest" : "Output order 1 (list).",
								"defaultarg" : 2,
								"isalias" : 0,
								"aliases" : [  ],
								"attachable" : 0,
								"isparam" : 0,
								"deprecated" : 0,
								"outlet" : 1,
								"type" : "list"
							}
,
							"triggers" : 							{
								"attrOrProp" : 2,
								"digest" : "The number of arguments determines the number of outlets. \t\t\t\t\t\tEach outlet sends out either a whole number, float, bang or list, \t\t\t\t\t\tas identified by symbol arguments (i, f, b, l). \t\t\t\t\t\tIf there are no arguments, there are two outlets, both of which send a float.",
								"defaultarg" : 1,
								"isalias" : 0,
								"aliases" : [  ],
								"settable" : 1,
								"attachable" : 0,
								"isparam" : 0,
								"deprecated" : 0,
								"type" : "list"
							}

						}
,
						"inputs" : [ 							{
								"name" : "input",
								"type" : [ "bang", "number", "list" ],
								"digest" : "input to distribute",
								"hot" : 1,
								"docked" : 0
							}
 ],
						"outputs" : [ 							{
								"name" : "out1",
								"type" : "bang",
								"digest" : "Output order 2 (bang).",
								"defaultarg" : 1,
								"docked" : 0
							}
, 							{
								"name" : "out2",
								"type" : "list",
								"digest" : "Output order 1 (list).",
								"defaultarg" : 2,
								"docked" : 0
							}
 ],
						"helpname" : "trigger",
						"aliasOf" : "trigger",
						"classname" : "t",
						"operator" : 0,
						"versionId" : -1133428571,
						"changesPatcherIO" : 0
					}
,
					"text" : "t b l"
				}

			}
, 			{
				"box" : 				{
					"id" : "obj-40",
					"maxclass" : "newobj",
					"numinlets" : 2,
					"numoutlets" : 1,
					"outlettype" : [ "" ],
					"patching_rect" : [ 511.0, 306.0, 43.0, 23.0 ],
					"rnbo_classname" : "list.reg",
					"rnbo_serial" : 9,
					"rnbo_uniqueid" : "list.reg_obj-40",
					"text" : "list.reg"
				}

			}
, 			{
				"box" : 				{
					"id" : "obj-39",
					"maxclass" : "newobj",
					"numinlets" : 2,
					"numoutlets" : 2,
					"outlettype" : [ "", "" ],
					"patching_rect" : [ 511.0, 353.0, 88.000001311302185, 23.0 ],
					"rnbo_classname" : "list.mth",
					"rnbo_serial" : 4,
					"rnbo_uniqueid" : "list.mth_obj-39",
					"text" : "list.mth"
				}

			}
, 			{
				"box" : 				{
					"id" : "obj-28",
					"maxclass" : "newobj",
					"numinlets" : 1,
					"numoutlets" : 2,
					"outlettype" : [ "", "" ],
					"patching_rect" : [ 208.0, 95.0, 70.0, 23.0 ],
					"rnbo_classname" : "t",
					"rnbo_serial" : 3,
					"rnbo_uniqueid" : "t_obj-28",
					"rnboinfo" : 					{
						"needsInstanceInfo" : 1,
						"argnames" : 						{
							"out1" : 							{
								"attrOrProp" : 1,
								"digest" : "Output order 2 (bang).",
								"defaultarg" : 1,
								"isalias" : 0,
								"aliases" : [  ],
								"attachable" : 0,
								"isparam" : 0,
								"deprecated" : 0,
								"outlet" : 1,
								"type" : "bang"
							}
,
							"out2" : 							{
								"attrOrProp" : 1,
								"digest" : "Output order 1 (number).",
								"defaultarg" : 2,
								"isalias" : 0,
								"aliases" : [  ],
								"attachable" : 0,
								"isparam" : 0,
								"deprecated" : 0,
								"outlet" : 1,
								"type" : "number"
							}
,
							"triggers" : 							{
								"attrOrProp" : 2,
								"digest" : "The number of arguments determines the number of outlets. \t\t\t\t\t\tEach outlet sends out either a whole number, float, bang or list, \t\t\t\t\t\tas identified by symbol arguments (i, f, b, l). \t\t\t\t\t\tIf there are no arguments, there are two outlets, both of which send a float.",
								"defaultarg" : 1,
								"isalias" : 0,
								"aliases" : [  ],
								"settable" : 1,
								"attachable" : 0,
								"isparam" : 0,
								"deprecated" : 0,
								"type" : "list"
							}

						}
,
						"inputs" : [ 							{
								"name" : "input",
								"type" : [ "bang", "number", "list" ],
								"digest" : "input to distribute",
								"hot" : 1,
								"docked" : 0
							}
 ],
						"outputs" : [ 							{
								"name" : "out1",
								"type" : "bang",
								"digest" : "Output order 2 (bang).",
								"defaultarg" : 1,
								"docked" : 0
							}
, 							{
								"name" : "out2",
								"type" : "number",
								"digest" : "Output order 1 (number).",
								"defaultarg" : 2,
								"docked" : 0
							}
 ],
						"helpname" : "trigger",
						"aliasOf" : "trigger",
						"classname" : "t",
						"operator" : 0,
						"versionId" : -1133428571,
						"changesPatcherIO" : 0
					}
,
					"text" : "t b i"
				}

			}
, 			{
				"box" : 				{
					"id" : "obj-27",
					"maxclass" : "newobj",
					"numinlets" : 2,
					"numoutlets" : 2,
					"outlettype" : [ "", "" ],
					"patching_rect" : [ 208.0, 274.0, 69.766670227050781, 23.0 ],
					"rnbo_classname" : "list.mth",
					"rnbo_serial" : 5,
					"rnbo_uniqueid" : "list.mth_obj-27",
					"text" : "list.mth"
				}

			}
, 			{
				"box" : 				{
					"id" : "obj-20",
					"maxclass" : "newobj",
					"numinlets" : 2,
					"numoutlets" : 1,
					"outlettype" : [ "" ],
					"patching_rect" : [ 208.0, 210.0, 43.0, 23.0 ],
					"rnbo_classname" : "list.reg",
					"rnbo_serial" : 11,
					"rnbo_uniqueid" : "list.reg_obj-20",
					"text" : "list.reg"
				}

			}
, 			{
				"box" : 				{
					"id" : "obj-64",
					"maxclass" : "newobj",
					"numinlets" : 0,
					"numoutlets" : 1,
					"outlettype" : [ "" ],
					"patching_rect" : [ 208.0, 35.0, 28.0, 23.0 ],
					"rnbo_classname" : "in",
					"rnbo_extra_attributes" : 					{
						"meta" : "",
						"comment" : ""
					}
,
					"rnbo_serial" : 4,
					"rnbo_uniqueid" : "in_obj-64",
					"rnboinfo" : 					{
						"needsInstanceInfo" : 1,
						"argnames" : 						{
							"index" : 							{
								"attrOrProp" : 2,
								"digest" : "inlet number",
								"defaultarg" : 1,
								"isalias" : 0,
								"aliases" : [  ],
								"settable" : 1,
								"attachable" : 0,
								"isparam" : 0,
								"deprecated" : 0,
								"type" : "number",
								"mandatory" : 1
							}
,
							"comment" : 							{
								"attrOrProp" : 2,
								"digest" : "mouse over comment",
								"isalias" : 0,
								"aliases" : [  ],
								"settable" : 1,
								"attachable" : 0,
								"isparam" : 0,
								"deprecated" : 0,
								"type" : "symbol"
							}
,
							"meta" : 							{
								"attrOrProp" : 2,
								"digest" : "A JSON formatted string containing metadata for use by the exported code",
								"isalias" : 0,
								"aliases" : [  ],
								"settable" : 1,
								"attachable" : 0,
								"isparam" : 0,
								"deprecated" : 0,
								"type" : "symbol",
								"defaultValue" : "",
								"label" : "Metadata",
								"displayorder" : 3
							}

						}
,
						"inputs" : [  ],
						"outputs" : [ 							{
								"name" : "out1",
								"type" : [ "bang", "number", "list" ],
								"digest" : "value from inlet with index 2",
								"displayName" : "",
								"docked" : 0
							}
 ],
						"helpname" : "in",
						"aliasOf" : "in",
						"classname" : "in",
						"operator" : 0,
						"versionId" : 1219109108,
						"changesPatcherIO" : 1
					}
,
					"text" : "in 2"
				}

			}
 ],
		"lines" : [ 			{
				"patchline" : 				{
					"destination" : [ "obj-14", 0 ],
					"source" : [ "obj-11", 0 ]
				}

			}
, 			{
				"patchline" : 				{
					"destination" : [ "obj-13", 0 ],
					"source" : [ "obj-14", 0 ]
				}

			}
, 			{
				"patchline" : 				{
					"destination" : [ "obj-45", 1 ],
					"order" : 0,
					"source" : [ "obj-16", 0 ]
				}

			}
, 			{
				"patchline" : 				{
					"destination" : [ "obj-50", 0 ],
					"order" : 1,
					"source" : [ "obj-16", 0 ]
				}

			}
, 			{
				"patchline" : 				{
					"destination" : [ "obj-33", 0 ],
					"source" : [ "obj-17", 0 ]
				}

			}
, 			{
				"patchline" : 				{
					"destination" : [ "obj-34", 0 ],
					"source" : [ "obj-17", 1 ]
				}

			}
, 			{
				"patchline" : 				{
					"destination" : [ "obj-17", 0 ],
					"source" : [ "obj-19", 0 ]
				}

			}
, 			{
				"patchline" : 				{
					"destination" : [ "obj-44", 0 ],
					"source" : [ "obj-2", 0 ]
				}

			}
, 			{
				"patchline" : 				{
					"destination" : [ "obj-27", 0 ],
					"source" : [ "obj-20", 0 ]
				}

			}
, 			{
				"patchline" : 				{
					"destination" : [ "obj-23", 0 ],
					"source" : [ "obj-22", 0 ]
				}

			}
, 			{
				"patchline" : 				{
					"destination" : [ "obj-25", 0 ],
					"source" : [ "obj-23", 0 ]
				}

			}
, 			{
				"patchline" : 				{
					"destination" : [ "obj-29", 0 ],
					"source" : [ "obj-23", 1 ]
				}

			}
, 			{
				"patchline" : 				{
					"destination" : [ "obj-1", 0 ],
					"source" : [ "obj-27", 0 ]
				}

			}
, 			{
				"patchline" : 				{
					"destination" : [ "obj-20", 0 ],
					"source" : [ "obj-28", 0 ]
				}

			}
, 			{
				"patchline" : 				{
					"destination" : [ "obj-27", 1 ],
					"source" : [ "obj-28", 1 ]
				}

			}
, 			{
				"patchline" : 				{
					"destination" : [ "obj-31", 0 ],
					"source" : [ "obj-30", 0 ]
				}

			}
, 			{
				"patchline" : 				{
					"destination" : [ "obj-16", 2 ],
					"source" : [ "obj-31", 2 ]
				}

			}
, 			{
				"patchline" : 				{
					"destination" : [ "obj-35", 0 ],
					"source" : [ "obj-31", 0 ]
				}

			}
, 			{
				"patchline" : 				{
					"destination" : [ "obj-34", 0 ],
					"source" : [ "obj-33", 0 ]
				}

			}
, 			{
				"patchline" : 				{
					"destination" : [ "obj-35", 1 ],
					"source" : [ "obj-34", 0 ]
				}

			}
, 			{
				"patchline" : 				{
					"destination" : [ "obj-16", 1 ],
					"order" : 1,
					"source" : [ "obj-35", 0 ]
				}

			}
, 			{
				"patchline" : 				{
					"destination" : [ "obj-49", 1 ],
					"order" : 0,
					"source" : [ "obj-35", 0 ]
				}

			}
, 			{
				"patchline" : 				{
					"destination" : [ "obj-19", 0 ],
					"source" : [ "obj-36", 0 ]
				}

			}
, 			{
				"patchline" : 				{
					"destination" : [ "obj-30", 0 ],
					"source" : [ "obj-36", 1 ]
				}

			}
, 			{
				"patchline" : 				{
					"destination" : [ "obj-36", 0 ],
					"source" : [ "obj-38", 0 ]
				}

			}
, 			{
				"patchline" : 				{
					"destination" : [ "obj-14", 1 ],
					"midpoints" : [ 589.500001311302185, 392.600006282329559, 452.766670678009064, 392.600006282329559, 452.766670678009064, 177.400003731250763, 65.5, 177.400003731250763 ],
					"order" : 2,
					"source" : [ "obj-39", 1 ]
				}

			}
, 			{
				"patchline" : 				{
					"destination" : [ "obj-20", 1 ],
					"midpoints" : [ 589.500001311302185, 410.600006282329559, 391.766671989311249, 410.600006282329559, 391.766671989311249, 177.400003731250763, 241.5, 177.400003731250763 ],
					"order" : 1,
					"source" : [ "obj-39", 1 ]
				}

			}
, 			{
				"patchline" : 				{
					"destination" : [ "obj-40", 1 ],
					"midpoints" : [ 589.500001311302185, 439.200012803077698, 491.199990153312683, 439.200012803077698, 491.199990153312683, 289.133344233036041, 544.5, 289.133344233036041 ],
					"order" : 0,
					"source" : [ "obj-39", 1 ]
				}

			}
, 			{
				"patchline" : 				{
					"destination" : [ "obj-39", 0 ],
					"source" : [ "obj-40", 0 ]
				}

			}
, 			{
				"patchline" : 				{
					"destination" : [ "obj-16", 0 ],
					"source" : [ "obj-42", 0 ]
				}

			}
, 			{
				"patchline" : 				{
					"destination" : [ "obj-39", 1 ],
					"source" : [ "obj-44", 1 ]
				}

			}
, 			{
				"patchline" : 				{
					"destination" : [ "obj-40", 0 ],
					"source" : [ "obj-44", 0 ]
				}

			}
, 			{
				"patchline" : 				{
					"destination" : [ "obj-47", 0 ],
					"source" : [ "obj-46", 0 ]
				}

			}
, 			{
				"patchline" : 				{
					"destination" : [ "obj-16", 0 ],
					"source" : [ "obj-47", 0 ]
				}

			}
, 			{
				"patchline" : 				{
					"destination" : [ "obj-28", 0 ],
					"source" : [ "obj-64", 0 ]
				}

			}
, 			{
				"patchline" : 				{
					"destination" : [ "obj-14", 1 ],
					"midpoints" : [ 544.5, 148.200001865625381, 65.5, 148.200001865625381 ],
					"order" : 2,
					"source" : [ "obj-7", 0 ]
				}

			}
, 			{
				"patchline" : 				{
					"destination" : [ "obj-20", 1 ],
					"midpoints" : [ 544.5, 148.200001865625381, 241.5, 148.200001865625381 ],
					"order" : 1,
					"source" : [ "obj-7", 0 ]
				}

			}
, 			{
				"patchline" : 				{
					"destination" : [ "obj-40", 1 ],
					"order" : 0,
					"source" : [ "obj-7", 0 ]
				}

			}
 ],
		"default_bgcolor" : [ 0.031372549019608, 0.125490196078431, 0.211764705882353, 1.0 ],
		"color" : [ 0.929412, 0.929412, 0.352941, 1.0 ],
		"elementcolor" : [ 0.357540726661682, 0.515565991401672, 0.861786782741547, 1.0 ],
		"accentcolor" : [ 0.343034118413925, 0.506230533123016, 0.86220508813858, 1.0 ],
		"stripecolor" : [ 0.258338063955307, 0.352425158023834, 0.511919498443604, 1.0 ],
		"bgfillcolor_type" : "color",
		"bgfillcolor_color" : [ 0.031372549019608, 0.125490196078431, 0.211764705882353, 1.0 ],
		"bgfillcolor_color1" : [ 0.031372549019608, 0.125490196078431, 0.211764705882353, 1.0 ],
		"bgfillcolor_color2" : [ 0.263682, 0.004541, 0.038797, 1.0 ],
		"bgfillcolor_angle" : 270.0,
		"bgfillcolor_proportion" : 0.39,
		"bgfillcolor_autogradient" : 0.0
	}

}
